<svg width="513" height="513" viewBox="0 0 513 513" fill="none" xmlns="http://www.w3.org/2000/svg">
<path d="M0.5 55.5C0.5 25.1243 25.1243 0.5 55.5 0.5H457.5C487.876 0.5 512.5 25.1243 512.5 55.5V457.5C512.5 487.876 487.876 512.5 457.5 512.5H55.5C25.1243 512.5 0.5 487.876 0.5 457.5V55.5Z" fill="url(#paint0_linear_13_2)"/>
<path d="M446.88 209.157L446.849 209.099L446.811 209.046C445.682 207.483 444.035 206.307 442.165 205.881C439.804 204.026 436.514 201.783 431.812 198.649L431.809 198.646L407.062 182.307C405.002 165.32 396.618 149.728 383.662 138.551C367.766 124.37 347.062 116.708 325.705 117.196C320.791 117.276 315.954 117.741 311.12 118.591L273.59 93.7579L273.573 93.7464L273.555 93.7356C263.085 87.4207 249.961 87.4228 239.415 93.7338L239.395 93.746L239.375 93.759L201.776 118.745C196.677 117.74 191.438 117.275 186.212 117.196C165.104 116.789 144.483 124.205 128.505 138.143C115.221 149.485 106.753 165.483 104.852 182.875L81.2476 198.479C81.2459 198.48 81.2443 198.481 81.2426 198.482C76.3408 201.645 73.2888 203.883 70.8939 205.64L70.8835 205.648C69.0491 206.131 67.3786 207.215 66.222 208.905L66.2219 208.905L66.2152 208.915C65.4471 210.067 65.0907 211.459 65.0022 212.787L65 212.82V212.854V212.856V212.859V212.862V212.865V212.868V212.871V212.873V212.876V212.879V212.882V212.885V212.888V212.89V212.893V212.896V212.899V212.902V212.905V212.908V212.911V212.913V212.916V212.919V212.922V212.925V212.928V212.931V212.934V212.936V212.939V212.942V212.945V212.948V212.951V212.954V212.957V212.96V212.962V212.965V212.968V212.971V212.974V212.977V212.98V212.983V212.986V212.989V212.992V212.994V212.997V213V213.003V213.006V213.009V213.012V213.015V213.018V213.021V213.024V213.027V213.03V213.032V213.035V213.038V213.041V213.044V213.047V213.05V213.053V213.056V213.059V213.062V213.065V213.068V213.071V213.074V213.077V213.08V213.083V213.086V213.089V213.092V213.095V213.098V213.101V213.104V213.106V213.109V213.112V213.115V213.118V213.121V213.124V213.127V213.13V213.133V213.136V213.139V213.142V213.145V213.148V213.151V213.154V213.157V213.16V213.163V213.166V213.169V213.172V213.175V213.178V213.181V213.184V213.187V213.19V213.194V213.197V213.2V213.203V213.206V213.209V213.212V213.215V213.218V213.221V213.224V213.227V213.23V213.233V213.236V213.239V213.242V213.245V213.248V213.251V213.254V213.257V213.26V213.263V213.266V213.269V213.273V213.276V213.279V213.282V213.285V213.288V213.291V213.294V213.297V213.3V213.303V213.306V213.309V213.312V213.315V213.319V213.322V213.325V213.328V213.331V213.334V213.337V213.34V213.343V213.346V213.349V213.352V213.356V213.359V213.362V213.365V213.368V213.371V213.374V213.377V213.38V213.383V213.387V213.39V213.393V213.396V213.399V213.402V213.405V213.408V213.411V213.415V213.418V213.421V213.424V213.427V213.43V213.433V213.436V213.44V213.443V213.446V213.449V213.452V213.455V213.458V213.461V213.465V213.468V213.471V213.474V213.477V213.48V213.483V213.486V213.49V213.493V213.496V213.499V213.502V213.505V213.509V213.512V213.515V213.518V213.521V213.524V213.527V213.531V213.534V213.537V213.54V213.543V213.546V213.55V213.553V213.556V213.559V213.562V213.565V213.569V213.572V213.575V213.578V213.581V213.584V213.588V213.591V213.594V213.597V213.6V213.603V213.607V213.61V213.613V213.616V213.619V213.623V213.626V213.629V213.632V213.635V213.638V213.642V213.645V213.648V213.651V213.654V213.658V213.661V213.664V213.667V213.67V213.674V213.677V213.68V213.683V213.686V213.69V213.693V213.696V213.699V213.702V213.706V213.709V213.712V213.715V213.718V213.722V213.725V213.728V213.731V213.735V213.738V213.741V213.744V213.747V213.751V213.754V213.757V213.76V213.763V213.767V213.77V213.773V213.776V213.78V213.783V213.786V213.789V213.793V213.796V213.799V213.802V213.805V213.809V213.812V213.815V213.818V213.822V213.825V213.828V213.831V213.835V213.838V213.841V213.844V213.847V213.851V213.854V213.857V213.86V213.864V213.867V213.87V213.873V213.877V213.88V213.883V213.886V213.89V213.893V213.896V213.899V213.903V213.906V213.909V213.912V213.916V213.919V213.922V213.925V213.929V213.932V213.935V213.938V213.942V213.945V213.948V213.952V213.955V213.958V213.961V213.965V213.968V213.971V213.974V213.978V213.981V213.984V213.987V213.991V213.994V213.997V214V214.004V214.007V214.01V214.014V214.017V214.02V214.023V214.027V214.03V214.033V214.036V214.04V214.043V214.046V214.05V214.053V214.056V214.059V214.063V214.066V214.069V214.073V214.076V214.079V214.082V214.086V214.089V214.092V214.095V214.099V214.102V214.105V214.109V214.112V214.115V214.118V214.122V214.125V214.128V214.132V214.135V214.138V214.141V214.145V214.148V214.151V214.155V214.158V214.161V214.164V214.168V214.171V214.174V214.178V214.181V214.184V214.187V214.191V214.194V214.197V214.201V214.204V214.207V214.211V214.214V214.217V214.22V214.224V214.227V214.23V214.234V214.237V214.24V214.243V214.247V214.25V214.253V214.257V214.26V214.263V214.267V214.27V214.273V214.276V214.28V214.283V214.286V214.29V214.293V214.296V214.3V214.303V214.306V214.309V214.313V214.316V214.319V214.323V214.326V214.329V214.333V214.336V214.339V214.342V214.346V214.349V214.352V214.356V214.359V214.362V214.366V214.369V214.372V214.375V214.379V214.382V214.385V214.389V214.392V214.395V214.399V214.402V214.405V214.409V214.412V214.415V214.418V214.422V214.425V214.428V214.432V214.435V214.438V214.442V214.445V214.448V214.451V214.455V214.458V214.461V214.465V400.396C65 413.117 75.3588 423.466 88.1473 423.55H88.1539H424.732C437.53 423.55 447.886 413.194 447.886 400.396V214.697C447.889 214.68 447.891 214.662 447.894 214.644C447.964 214.16 448.047 213.592 447.966 212.945C447.951 211.54 447.479 210.268 446.88 209.157ZM263.331 150.772L263.324 150.783L263.317 150.795C260.287 155.892 257.834 160.241 255.966 163.935C253.679 159.313 251.138 154.817 248.345 150.448C242.138 140.566 233.484 132.319 223.281 126.52C222.585 126.087 221.838 125.726 221.111 125.393C220.919 125.305 220.729 125.219 220.541 125.134L248.023 106.966C253.26 104.019 259.625 104.019 264.862 106.965L291.823 124.863C290.641 125.4 289.442 126.004 288.455 126.694C278.173 132.498 269.61 140.824 263.331 150.772ZM138.67 149.971L138.678 149.965C151.78 138.53 168.694 132.495 186.006 132.971L186.032 132.972L186.057 132.971C196.272 132.734 206.325 135.188 215.269 140.174C223.18 144.684 229.824 151.011 234.73 158.764C238.893 165.489 242.573 172.53 245.611 179.807L245.616 179.818L245.621 179.829C245.666 179.929 245.711 180.03 245.756 180.131C246.701 182.251 247.677 184.44 249.056 186.11C250.556 187.926 252.551 189.157 255.461 189.202L255.469 189.202H255.476C258.309 189.202 260.325 188.013 261.875 186.205C263.376 184.453 264.457 182.099 265.495 179.744L265.497 179.738C268.617 172.538 272.299 165.653 276.385 159.084L276.387 159.081C281.215 151.245 287.86 144.761 295.844 140.255C304.71 135.268 314.844 132.734 325.057 132.971L325.084 132.972L325.112 132.971C342.582 132.415 359.651 138.53 372.668 150.198L372.678 150.207L372.688 150.215C384.786 160.495 391.665 175.677 391.428 191.49L391.428 191.498V191.505C391.428 198.797 389.071 209.23 385.824 219.614C382.622 229.855 378.59 239.938 375.218 246.728L368.513 251.172L368.512 251.173L256.441 325.726L144.825 251.902C142.248 248.691 139.509 245.717 136.532 242.901L136.52 242.889L136.507 242.877C133.848 240.532 131.588 237.802 129.875 234.769C123.109 222.029 119.607 207.778 119.767 193.288L119.767 193.264L119.766 193.239C119.133 176.706 126.095 160.728 138.67 149.971ZM424.768 407.775L424.75 407.775H424.732H88.1539C84.04 407.775 80.7757 404.442 80.7757 400.396V228.088L252.427 341.777L252.431 341.78C255.1 343.529 258.511 343.529 261.18 341.78L261.186 341.776L377.754 264.279L377.756 264.278L432.352 228.167V400.396C432.352 402.392 431.569 404.29 430.103 405.616L430.085 405.633L430.067 405.651C428.645 407.073 426.736 407.846 424.768 407.775ZM423.132 211.753L425.831 213.571L399.166 231.206C402.659 221.4 405.233 211.299 406.943 201.01L423.126 211.749L423.132 211.753ZM89.6872 211.905L104.503 202.004C105.152 211.214 107.092 220.288 110.169 229.026L87.042 213.724L89.6763 211.913L89.6872 211.905Z" fill="white" stroke="white" stroke-width="2"/>
<path d="M231.138 254.597L231.138 254.597L231.148 254.604C236.594 258.314 242.874 260.594 249.482 261.153V284.742C245.914 283.835 242.791 282.345 240.51 280.536C237.96 278.514 236.578 276.194 236.578 273.918V273.322C236.925 269.652 234.196 266.365 230.512 266.074C226.815 265.702 223.521 268.447 223.144 272.124L223.139 272.175V272.226V272.229V272.233V272.236V272.239V272.243V272.246V272.249V272.252V272.256V272.259V272.262V272.266V272.269V272.272V272.276V272.279V272.282V272.285V272.289V272.292V272.295V272.299V272.302V272.305V272.309V272.312V272.315V272.319V272.322V272.325V272.328V272.332V272.335V272.338V272.342V272.345V272.348V272.352V272.355V272.358V272.361V272.365V272.368V272.371V272.375V272.378V272.381V272.385V272.388V272.391V272.395V272.398V272.401V272.404V272.408V272.411V272.414V272.418V272.421V272.424V272.428V272.431V272.434V272.437V272.441V272.444V272.447V272.451V272.454V272.457V272.461V272.464V272.467V272.471V272.474V272.477V272.48V272.484V272.487V272.49V272.494V272.497V272.5V272.504V272.507V272.51V272.513V272.517V272.52V272.523V272.527V272.53V272.533V272.537V272.54V272.543V272.547V272.55V272.553V272.556V272.56V272.563V272.566V272.57V272.573V272.576V272.58V272.583V272.586V272.589V272.593V272.596V272.599V272.603V272.606V272.609V272.613V272.616V272.619V272.623V272.626V272.629V272.632V272.636V272.639V272.642V272.646V272.649V272.652V272.656V272.659V272.662V272.665V272.669V272.672V272.675V272.679V272.682V272.685V272.689V272.692V272.695V272.698V272.702V272.705V272.708V272.712V272.715V272.718V272.722V272.725V272.728V272.732V272.735V272.738V272.741V272.745V272.748V272.751V272.755V272.758V272.761V272.765V272.768V272.771V272.774V272.778V272.781V272.784V272.788V272.791V272.794V272.798V272.801V272.804V272.808V272.811V272.814V272.817V272.821V272.824V272.827V272.831V272.834V272.837V272.841V272.844V272.847V272.85V272.854V272.857V272.86V272.864V272.867V272.87V272.874V272.877V272.88V272.884V272.887V272.89V272.893V272.897V272.9V272.903V272.907V272.91V272.913V272.917V272.92V272.923V272.926V272.93V272.933V272.936V272.94V272.943V272.946V272.95V272.953V272.956V272.96V272.963V272.966V272.969V272.973V272.976V272.979V272.983V272.986V272.989V272.993V272.996V272.999V273.002V273.006V273.009V273.012V273.016V273.019V273.022V273.026V273.029V273.032V273.036V273.039V273.042V273.045V273.049V273.052V273.055V273.059V273.062V273.065V273.069V273.072V273.075V273.078V273.082V273.085V273.088V273.092V273.095V273.098V273.102V273.105V273.108V273.112V273.115V273.118V273.121V273.125V273.128V273.131V273.135V273.138V273.141V273.145V273.148V273.151V273.154V273.158V273.161V273.164V273.168V273.171V273.174V273.178V273.181V273.184V273.188V273.191V273.194V273.197V273.201V273.204V273.207V273.211V273.214V273.217V273.221V273.224V273.227V273.23V273.234V273.237V273.24V273.244V273.247V273.25V273.254V273.257V273.26V273.264V273.267V273.27V273.273V273.277V273.28V273.283V273.287V273.29V273.293V273.297V273.3V273.303V273.306V273.31V273.313V273.316V273.32V273.323V273.326V273.33V273.333V273.336V273.34V273.343V273.346V273.349V273.353V273.356V273.359V273.363V273.366V273.369V273.373V273.376V273.379V273.382V273.386V273.389V273.392V273.396V273.399V273.402V273.406V273.409V273.412V273.415V273.419V273.422V273.425V273.429V273.432V273.435V273.439V273.442V273.445V273.449V273.452V273.455V273.458V273.462V273.465V273.468V273.472V273.475V273.478V273.482V273.485V273.488V273.491V273.495V273.498V273.501V273.505V273.508V273.511V273.515V273.518V273.521V273.525V273.528V273.531V273.534V273.538V273.541V273.544V273.548V273.551V273.554V273.558V273.561V273.564V273.567V273.571V273.574V273.577V273.581V273.584V273.587V273.591V273.594V273.597V273.601V273.604V273.607V273.61V273.614V273.617V273.62V273.624V273.627V273.63V273.634V273.637V273.64V273.643V273.647V273.65V273.653V273.657V273.66V273.663V273.667V273.67V273.673V273.677V273.68V273.683V273.686V273.69V273.693V273.696V273.7V273.703V273.706V273.71V273.713V273.716V273.719V273.723V273.726V273.729V273.733V273.736V273.739V273.743V273.746V273.749V273.753V273.756V273.759V273.762V273.766V273.769V273.772V273.776V273.779V273.782V273.786V273.789V273.792V273.795V273.799V273.802V273.805V273.809V273.812V273.815V273.819V273.822V273.825V273.829V273.832V273.835V273.838V273.842V273.845V273.848V273.852V273.855V273.858V273.862V273.865V273.868V273.871V273.875V273.878V273.881V273.885V273.888V273.891V273.895V273.898V273.901V273.905V273.908V273.911V273.914V273.918C223.139 286.307 234.346 296.09 249.321 298.617V309.606C249.321 313.3 252.346 316.325 256.04 316.325C259.734 316.325 262.76 313.3 262.76 309.606V298.493C278.604 296.507 290.714 286.576 290.714 273.676C290.714 262.664 281.283 253.034 267.55 250.066C265.943 249.648 264.283 249.406 262.76 249.199V225.957C266.291 226.862 269.394 228.333 271.664 230.123C274.203 232.126 275.583 234.424 275.583 236.699C275.583 240.465 278.6 243.499 282.303 243.499C286.077 243.499 289.103 240.474 289.103 236.699C289.103 224.313 277.901 214.53 263.002 212.077V201.817C263.002 198.123 259.976 195.097 256.282 195.097C252.516 195.097 249.482 198.114 249.482 201.817V211.802C233.717 213.789 221.527 223.715 221.527 236.538V236.55L221.528 236.561C221.696 243.804 225.235 250.465 231.138 254.597ZM262.921 262.819C263.573 262.918 264.139 263.025 264.691 263.156L264.685 263.213C268.545 264.071 271.771 265.64 274.011 267.549C276.258 269.465 277.436 271.647 277.436 273.757C277.436 276.215 275.874 278.711 273.028 280.817C270.445 282.729 266.91 284.228 262.921 284.98V262.819ZM249.482 225.604V247.601C245.75 247.157 242.133 245.876 239.042 243.768L239.042 243.768L239.033 243.762C236.666 242.184 235.203 239.597 234.89 236.757C235.058 234.259 236.729 231.773 239.599 229.695C242.175 227.829 245.623 226.368 249.482 225.604Z" fill="white" stroke="white" stroke-width="2"/>
<defs>
<linearGradient id="paint0_linear_13_2" x1="259" y1="-275" x2="-253" y2="237" gradientUnits="userSpaceOnUse">
<stop stop-color="#EC9EFC"/>
<stop offset="1" stop-color="#EF729F"/>
</linearGradient>
</defs>
</svg>
